<svg xmlns="http://www.w3.org/2000/svg" version="1.1" xmlns:xlink="http://www.w3.org/1999/xlink" xmlns:svgjs="http://svgjs.com/svgjs" width="1440" height="250" preserveAspectRatio="none" viewBox="0 0 1440 250"><g mask="url(&quot;#SvgjsMask1017&quot;)" fill="none"><path d="M14 250L264 0L328.5 0L78.5 250z" fill="url(#SvgjsLinearGradient1018)"></path><path d="M258.6 250L508.6 0L696.1 0L446.1 250z" fill="url(#SvgjsLinearGradient1018)"></path><path d="M486.20000000000005 250L736.2 0L1003.2 0L753.2 250z" fill="url(#SvgjsLinearGradient1018)"></path><path d="M751.8000000000001 250L1001.8000000000001 0L1145.8000000000002 0L895.8000000000001 250z" fill="url(#SvgjsLinearGradient1018)"></path><path d="M1419 250L1169 0L1004 0L1254 250z" fill="url(#SvgjsLinearGradient1019)"></path><path d="M1158.4 250L908.4000000000001 0L833.4000000000001 0L1083.4 250z" fill="url(#SvgjsLinearGradient1019)"></path><path d="M938.8 250L688.8 0L577.8 0L827.8 250z" fill="url(#SvgjsLinearGradient1019)"></path><path d="M717.1999999999999 250L467.19999999999993 0L350.19999999999993 0L600.1999999999999 250z" fill="url(#SvgjsLinearGradient1019)"></path><path d="M1244.6769110549744 250L1440 54.67691105497431L1440 250z" fill="url(#SvgjsLinearGradient1018)"></path><path d="M0 250L195.3230889450257 250L 0 54.67691105497431z" fill="url(#SvgjsLinearGradient1019)"></path></g><defs><mask id="SvgjsMask1017"><rect width="1440" height="250" fill="#ffffff"></rect></mask><linearGradient x1="0%" y1="100%" x2="100%" y2="0%" id="SvgjsLinearGradient1018"><stop stop-color="rgba(15, 89, 185, 0.2)" offset="0"></stop><stop stop-opacity="0" stop-color="rgba(15, 89, 185, 0.2)" offset="0.66"></stop></linearGradient><linearGradient x1="100%" y1="100%" x2="0%" y2="0%" id="SvgjsLinearGradient1019"><stop stop-color="rgba(15, 89, 185, 0.2)" offset="0"></stop><stop stop-opacity="0" stop-color="rgba(15, 89, 185, 0.2)" offset="0.66"></stop></linearGradient></defs></svg>